#!OML:ASF I:\Actors\actors\Patient Classification 1\Patient 1\Session 1\Subject1.ASF
:FULLY-SPECIFIED
:DEGREES
2359
root -0.107742 17.3947 9.02241 6.60088 3.62166 -8.32897
lowerback -6.94588 0.30154 5.25447
upperback -10.6774 0.443011 2.3287
thorax -7.33995 -0.0562252 -0.476843
lowerneck -1.91664 -6.14725 -4.17009
upperneck 28.5139 -8.52825 0.662221
head 9.50904 -4.39279 0.197128
rclavicle 1.26228e-014 -4.8901e-014
rhumerus -49.8115 -29.2495 -61.7743
rradius 21.0028
rwrist 52.6894
rhand 9.15231 -32.0405
rfingers 7.12502
rthumb 34.3219 -58.7523
lclavicle 1.26228e-014 -4.8901e-014
lhumerus -11.9387 -25.3632 90.9821
lradius 126.27
lwrist 54.9926
lhand -15.2165 -3.23647
lfingers 7.12502
lthumb 10.956 26.4577
rfemur 3.66175 25.7182 26.7121
rtibia 0.688754
rfoot -16.7043 -30.107
rtoes 4.83003
lfemur 13.7905 -49.9346 -17.638
ltibia -5.77694
lfoot -27.4849 57.4124
ltoes 12.3004
2360
root -0.111091 17.396 9.02403 6.55568 3.634 -8.43183
lowerback -7.00648 0.226444 5.32679
upperback -10.724 0.344613 2.43628
thorax -7.36413 -0.106725 -0.403306
lowerneck -2.39524 -5.83888 -5.67885
upperneck 29.8814 -8.32395 2.08884
head 10.242 -4.29938 0.922687
rclavicle -9.44227e-015 1.92821e-014
rhumerus -49.3372 -28.85 -62.2829
rradius 21.0828
rwrist 52.4699
rhand 9.1852 -31.944
rfingers 7.12502
rthumb 34.3531 -58.6487
lclavicle -9.44227e-015 1.92821e-014
lhumerus -8.45776 -25.6406 89.0018
lradius 127.413
lwrist 57.6188
lhand -15.4813 -2.13556
lfingers 7.12502
lthumb 10.7005 27.5719
rfemur 3.64484 25.5534 26.831
rtibia 0.762143
rfoot -16.6719 -29.9669
rtoes 4.86379
lfemur 13.6657 -49.5787 -17.3447
ltibia -5.80748
lfoot -26.8983 57.1447
ltoes 11.821
2361
root -0.114594 17.3974 9.02572 6.45001 3.6022 -8.51365
lowerback -6.90129 0.162649 5.41083
upperback -10.786 0.273659 2.52744
thorax -7.49852 -0.147616 -0.352688
lowerneck -2.71362 -5.64752 -6.38203
upperneck 30.9383 -8.10986 2.5289
head 10.752 -4.22572 1.19795
rclavicle 1.35174e-014 9.83984e-015
rhumerus -48.9411 -28.4859 -62.7549
rradius 21.1763
rwrist 52.1748
rhand 9.08797 -31.9323
rfingers 7.12502
rthumb 34.2608 -58.6578
lclavicle 1.35174e-014 9.83984e-015
lhumerus -5.50874 -25.801 87.2034
lradius 128.28
lwrist 59.829
lhand -15.6226 -1.13628
lfingers 7.12502
lthumb 10.5643 28.5782
rfemur 3.73166 25.5341 26.9892
rtibia 0.819852
rfoot -16.6682 -29.929
rtoes 4.93934
lfemur 13.6452 -49.1153 -17.1373
ltibia -5.87314
lfoot -26.2796 56.8469
ltoes 11.2493
2362
root -0.115372 17.3975 9.02731 6.32757 3.49177 -8.4341
lowerback -6.76722 0.122118 5.40367
upperback -10.8197 0.232555 2.55453
thorax -7.61462 -0.169251 -0.319098
lowerneck -2.76647 -5.52952 -6.02572
upperneck 31.4371 -7.76727 1.72615
head 10.8849 -4.11516 0.879715
rclavicle -3.01656e-014 3.8266e-014
rhumerus -48.576 -28.1488 -63.2312
rradius 21.3045
rwrist 51.8199
rhand 8.97741 -31.9639
rfingers 7.12502
rthumb 34.1558 -58.7129
lclavicle -3.01656e-014 3.8266e-014
lhumerus -2.95041 -25.7833 85.4739
lradius 128.949
lwrist 61.8217
lhand -15.6092 -0.333287
lfingers 7.12502
lthumb 10.5772 29.3805
rfemur 3.87955 25.5771 26.9721
rtibia 0.847347
rfoot -16.6679 -29.8967
rtoes 4.82518
lfemur 13.8871 -49.013 -17.4256
ltibia -5.86043
lfoot -26.3181 56.8593
ltoes 11.1899
2363
root -0.11421 17.3969 9.02868 6.25358 3.33526 -8.31592
lowerback -6.70463 0.0753047 5.35165
upperback -10.8405 0.1786 2.60671
thorax -7.67547 -0.191496 -0.234458
lowerneck -3.08799 -5.3588 -5.28575
upperneck 32.1278 -7.25683 0.4914
head 11.1074 -3.92971 0.344181
rclavicle 7.55382e-015 -3.43897e-014
rhumerus -48.136 -27.6503 -63.8135
rradius 21.5186
rwrist 51.1895
rhand 9.06354 -32.0479
rfingers 7.12502
rthumb 34.2376 -58.7786
lclavicle 7.55382e-015 -3.43897e-014
lhumerus -0.744623 -25.4427 83.7313
lradius 129.463
lwrist 63.756
lhand -15.5014 0.132916
lfingers 7.12502
lthumb 10.6811 29.8414
rfemur 3.94929 25.5198 26.849
rtibia 0.879832
rfoot -16.6175 -29.7448
rtoes 4.63363
lfemur 14.0415 -48.8742 -17.7159
ltibia -5.79994
lfoot -26.4279 56.829
ltoes 11.268
2364
root -0.113583 17.3972 9.03107 6.19298 3.16157 -8.27925
lowerback -6.72345 0.0359039 5.31953
upperback -10.8249 0.128548 2.70712
thorax -7.64958 -0.20896 -0.110916
lowerneck -3.0585 -5.22846 -5.18062
upperneck 32.4518 -6.97156 0.0912633
head 11.1988 -3.83343 0.207587
rclavicle 9.70318e-015 -1.10822e-014
rhumerus -47.6763 -27.1043 -64.4544
rradius 21.7909
rwrist 50.3146
rhand 8.98609 -32.0484
rfingers 7.12502
rthumb 34.1641 -58.7956
lclavicle 9.70318e-015 -1.10822e-014
lhumerus 1.03548 -25.0652 82.1514
lradius 129.849
lwrist 65.2903
lhand -15.6696 0.500584
lfingers 7.12502
lthumb 10.5189 30.2174
rfemur 3.98645 25.4674 26.806
rtibia 0.903486
rfoot -16.4953 -29.5956
rtoes 4.52535
lfemur 14.1972 -48.7076 -17.8872
ltibia -5.78877
lfoot -26.5423 56.8018
ltoes 11.3509
2365
root -0.113836 17.3978 9.03461 6.14666 2.97759 -8.33494
lowerback -6.78254 0.041261 5.40208
upperback -10.7994 0.131758 2.78806
thorax -7.58921 -0.208847 -0.0719277
lowerneck -3.14513 -5.1651 -4.91574
upperneck 32.8263 -6.75047 -0.470583
head 11.3237 -3.76563 -0.0279559
rclavicle -8.0632e-015 -1.80646e-014
rhumerus -47.3908 -26.764 -64.9554
rradius 22.0671
rwrist 49.5204
rhand 8.81904 -32.005
rfingers 7.12502
rthumb 34.0054 -58.7875
lclavicle -8.0632e-015 -1.80646e-014
lhumerus 2.46266 -24.8617 80.8011
lradius 130.087
lwrist 66.4653
lhand -16.347 0.967859
lfingers 7.12502
lthumb 9.86536 30.7167
rfemur 4.03783 25.5729 26.902
rtibia 0.917757
rfoot -16.4059 -29.5615
rtoes 4.42308
lfemur 14.4278 -48.6597 -17.99
ltibia -5.85285
lfoot -26.8163 56.8936
ltoes 11.6421
2366
root -0.113071 17.3973 9.03852 6.13394 2.78326 -8.37693
lowerback -6.83684 0.0688004 5.53086
upperback -10.8094 0.164301 2.83714
thorax -7.57062 -0.20029 -0.0913602
lowerneck -3.27784 -5.10117 -4.74694
upperneck 33.327 -6.54186 -0.933153
head 11.5204 -3.70477 -0.218419
rclavicle 3.03084e-014 -4.41302e-014
rhumerus -47.2255 -26.5119 -65.3354
rradius 22.314
rwrist 48.8417
rhand 8.81002 -32.0247
rfingers 7.12502
rthumb 33.9968 -58.8092
lclavicle 3.03084e-014 -4.41302e-014
lhumerus 3.6006 -24.6918 79.6393
lradius 130.175
lwrist 67.5742
lhand -17.3642 1.62524
lfingers 7.12502
lthumb 8.88392 31.4182
rfemur 4.05935 25.6904 26.9651
rtibia 0.94008
rfoot -16.3628 -29.5124
rtoes 4.39171
lfemur 14.6469 -48.6562 -18.1075
ltibia -5.92437
lfoot -27.1735 57.005
ltoes 12.046
2367
root -0.110403 17.3949 9.04259 6.11172 2.59161 -8.39005
lowerback -6.85348 0.0856594 5.6588
upperback -10.8337 0.186175 2.88388
thorax -7.59001 -0.198016 -0.112244
lowerneck -3.32229 -5.0052 -4.65155
upperneck 33.8495 -6.31805 -1.26456
head 11.7202 -3.63242 -0.345805
rclavicle 1.00076e-014 -7.76503e-015
rhumerus -47.1034 -26.1001 -65.7794
rradius 22.5777
rwrist 48.1126
rhand 8.6844 -32.0619
rfingers 7.12502
rthumb 33.8775 -58.8728
lclavicle 1.00076e-014 -7.76503e-015
lhumerus 4.44439 -24.4955 78.5778
lradius 130.207
lwrist 68.7205
lhand -18.4543 2.32606
lfingers 7.12502
lthumb 7.83185 32.161
rfemur 4.07518 25.6967 26.9647
rtibia 0.959255
rfoot -16.2842 -29.3685
rtoes 4.33571
lfemur 14.87 -48.6164 -18.2761
ltibia -5.97612
lfoot -27.3773 57.1165
ltoes 12.2019
2368
root -0.107042 17.3926 9.0468 6.0806 2.41611 -8.36787
lowerback -6.88002 0.0876532 5.7371
upperback -10.8322 0.187222 2.94012
thorax -7.57505 -0.200924 -0.0962218
lowerneck -3.3826 -4.91646 -4.51658
upperneck 34.2855 -6.09329 -1.63683
head 11.8878 -3.55973 -0.494943
rclavicle -1.28589e-014 7.03201e-015
rhumerus -46.9845 -25.4651 -66.356
rradius 22.9383
rwrist 47.2436
rhand 8.50162 -32.0597
rfingers 7.12502
rthumb 33.7038 -58.9087
lclavicle -1.28589e-014 7.03201e-015
lhumerus 5.08671 -24.2428 77.5903
lradius 130.263
lwrist 69.8555
lhand -19.1399 2.78462
lfingers 7.12502
lthumb 7.17012 32.6432
rfemur 4.11872 25.6532 26.9207
rtibia 0.944014
rfoot -16.1857 -29.1972
rtoes 4.10409
lfemur 15.0334 -48.4944 -18.4406
ltibia -5.99297
lfoot -27.5955 57.1231
ltoes 12.437
2369
root -0.104022 17.3923 9.05054 6.07451 2.2595 -8.33069
lowerback -6.93762 0.0765437 5.78577
upperback -10.8128 0.167773 3.00071
thorax -7.52269 -0.210627 -0.059821
lowerneck -3.53205 -4.87252 -4.40951
upperneck 34.6411 -5.91337 -2.0398
head 12.044 -3.51464 -0.658441
rclavicle 1.61513e-015 -1.67476e-014
rhumerus -46.835 -24.8185 -66.9281
rradius 23.2584
rwrist 46.46
rhand 8.44961 -31.919
rfingers 7.12502
rthumb 33.6544 -58.7788
lclavicle 1.61513e-015 -1.67476e-014
lhumerus 5.59783 -23.8732 76.7305
lradius 130.327
lwrist 70.7678
lhand -18.9542 3.11815
lfingers 7.12502
lthumb 7.3494 32.9705
rfemur 4.13415 25.6253 26.8501
rtibia 0.914872
rfoot -16.0712 -29.0661
rtoes 3.76021
lfemur 15.0892 -48.3675 -18.5477
ltibia -5.96005
lfoot -27.9127 57.0611
ltoes 12.7997
2370
root -0.101674 17.3932 9.05196 6.07788 2.14618 -8.39662
lowerback -6.95726 0.0963119 5.97978
upperback -10.7956 0.188709 3.02967
thorax -7.49531 -0.21312 -0.136836
lowerneck -3.6432 -4.82826 -4.11619
upperneck 34.8944 -5.75001 -2.47576
head 12.1416 -3.45688 -0.864804
rclavicle 8.15017e-015 -2.0276e-014
rhumerus -46.7768 -24.4456 -67.3382
rradius 23.5128
rwrist 45.8827
rhand 8.51317 -31.831
rfingers 7.12502
rthumb 33.7148 -58.6776
lclavicle 8.15017e-015 -2.0276e-014
lhumerus 6.06658 -23.5518 75.9437
lradius 130.372
lwrist 71.3795
lhand -18.1037 3.24529
lfingers 7.12502
lthumb 8.17029 33.0673
rfemur 4.0942 25.6538 26.8991
rtibia 0.949654
rfoot -16.0257 -28.9967
rtoes 3.70419
lfemur 15.1161 -48.3214 -18.5075
ltibia -5.93861
lfoot -28.0754 57.0834
ltoes 12.9085
